<svg xmlns="http://www.w3.org/2000/svg" viewBox="0 0 500 500"><circle cx="250" cy="250" r="250"/><path d="M358.5 237.9l-48.3 48.2c-26.6 26.6-69.8 26.6-96.5 0-4.2-4.2-7.5-8.9-10.4-13.8l22.4-22.4c1.1-1.1 2.4-1.7 3.6-2.4 1.5 5.3 4.3 10.3 8.4 14.5 13.3 13.3 34.9 13.3 48.2 0l48.2-48.2c13.3-13.3 13.3-34.9 0-48.2-13.3-13.3-34.9-13.3-48.2 0L269 182.8c-13.9-5.4-28.9-6.9-43.5-4.7l36.6-36.5c26.6-26.6 69.8-26.6 96.5 0 26.6 26.5 26.6 69.7-.1 96.3zM231 317.3l-17.2 17.2c-13.3 13.3-34.9 13.3-48.2 0-13.3-13.3-13.3-34.9 0-48.3l48.2-48.2c13.3-13.3 34.9-13.3 48.2 0 4.2 4.2 6.9 9.2 8.4 14.5 1.3-.7 2.6-1.3 3.6-2.4l22.4-22.4c-2.9-4.9-6.2-9.6-10.4-13.8-26.6-26.6-69.8-26.6-96.5 0l-48.2 48.2c-26.6 26.6-26.6 69.8 0 96.5 26.6 26.6 69.8 26.6 96.5 0l36.6-36.6c-14.5 2.1-29.5.7-43.4-4.7z" fill="#b1ffd5"/></svg>